if (_typeface_js && _typeface_js.loadFace) _typeface_js.loadFace({"glyphs":{"S":{"x_min":-0.0625,"x_max":826,"ha":915,"o":"m 826 307 q 701 55 826 148 q 423 -29 587 -29 q 138 60 255 -29 q 0 318 13 154 l 208 318 q 288 192 216 237 q 437 152 352 152 q 559 181 506 152 q 623 282 623 217 q 466 411 623 372 q 176 487 197 477 q 18 719 18 556 q 135 958 18 869 q 399 1041 244 1041 q 670 957 560 1041 q 791 714 791 865 l 591 714 q 525 827 582 787 q 392 867 469 867 q 277 839 326 867 q 218 743 218 805 q 374 618 218 655 q 667 543 646 552 q 826 307 826 472 "},"/":{"x_min":195.828125,"x_max":631.9375,"ha":828,"o":"m 631 1040 l 288 -129 l 195 -129 l 537 1040 l 631 1040 "},"K":{"x_min":0,"x_max":899.671875,"ha":996,"o":"m 899 0 l 646 0 l 316 462 l 208 355 l 208 0 l 0 0 l 0 1013 l 208 1013 l 208 596 l 603 1013 l 863 1013 l 460 603 l 899 0 "},"7":{"x_min":65,"x_max":762,"ha":827,"o":"m 762 808 q 521 435 603 626 q 409 0 438 244 l 205 0 q 313 422 227 234 q 548 789 387 583 l 65 789 l 65 958 l 762 958 l 762 808 "},"d":{"x_min":0,"x_max":722,"ha":836,"o":"m 722 0 l 530 0 l 530 101 q 304 -25 450 -25 q 72 104 155 -25 q 0 373 0 215 q 72 643 0 529 q 304 775 155 775 q 431 743 372 775 q 528 656 490 712 l 528 1013 l 722 1013 l 722 0 m 361 601 q 234 524 280 601 q 196 373 196 459 q 233 221 196 287 q 358 144 277 144 q 489 217 441 144 q 529 370 529 281 q 490 523 529 457 q 361 601 443 601 "},",":{"x_min":0,"x_max":205,"ha":302,"o":"m 205 5 q 149 -150 205 -88 q 0 -238 94 -213 l 0 -159 q 83 -99 56 -137 q 111 -1 111 -62 l 0 -1 l 0 206 l 205 206 l 205 5 "},"Y":{"x_min":-0.21875,"x_max":836.171875,"ha":931,"o":"m 836 1013 l 532 377 l 532 1 l 322 1 l 322 377 l 0 1013 l 208 1013 l 427 577 l 626 1013 l 836 1013 "},"E":{"x_min":0,"x_max":761.546875,"ha":824,"o":"m 761 1 l 0 1 l 0 1013 l 735 1013 l 735 837 l 206 837 l 206 622 l 690 622 l 690 447 l 206 447 l 206 187 l 761 187 l 761 1 "},"y":{"x_min":0.171875,"x_max":739.453125,"ha":828,"o":"m 739 749 l 445 -106 q 361 -237 414 -198 q 214 -276 308 -276 q 157 -276 176 -276 q 121 -270 132 -270 l 121 -109 q 148 -112 134 -110 q 179 -115 161 -115 q 248 -90 226 -115 q 270 -16 270 -66 q 207 173 270 -3 q 84 515 162 301 q 0 748 41 632 l 218 748 l 376 207 l 529 749 l 739 749 "},"\"":{"x_min":0,"x_max":357,"ha":454,"o":"m 357 604 l 225 604 l 225 987 l 357 987 l 357 604 m 132 604 l 0 604 l 0 987 l 132 987 l 132 604 "},"‹":{"x_min":36,"x_max":792,"ha":828,"o":"m 792 18 l 36 352 l 36 487 l 792 822 l 792 670 l 230 420 l 792 169 l 792 18 "},"„":{"x_min":0,"x_max":483,"ha":587,"o":"m 205 5 q 149 -150 205 -88 q 0 -238 94 -213 l 0 -159 q 83 -99 56 -137 q 111 -1 111 -62 l 0 -1 l 0 206 l 205 206 l 205 5 m 483 5 q 427 -150 483 -88 q 278 -238 372 -213 l 278 -159 q 361 -99 334 -137 q 389 -1 389 -62 l 278 -1 l 278 206 l 483 206 l 483 5 "},"g":{"x_min":0,"x_max":723,"ha":838,"o":"m 723 48 q 636 -223 723 -142 q 356 -304 550 -304 q 140 -253 226 -304 q 23 -71 36 -192 l 242 -71 q 289 -127 255 -110 q 367 -144 323 -144 q 504 -82 469 -144 q 529 71 529 -38 l 529 104 q 440 26 495 51 q 319 0 386 0 q 79 115 166 0 q 0 377 0 219 q 77 647 0 534 q 316 775 166 775 q 533 657 455 775 l 533 749 l 723 749 l 723 48 m 367 167 q 491 237 447 167 q 529 382 529 297 q 490 529 529 466 q 363 603 444 603 q 239 532 284 603 q 201 386 201 471 q 239 239 201 300 q 367 167 285 167 "},"–":{"x_min":0,"x_max":704,"ha":801,"o":"m 704 297 l 0 297 l 0 450 l 704 450 l 704 297 "},"ƒ":{"x_min":-45.71875,"x_max":440,"ha":525,"o":"m 440 608 l 316 608 l 150 -278 l -45 -278 l 121 608 l 14 608 l 14 748 l 121 748 q 159 948 121 893 q 344 1016 208 1016 l 440 1016 l 440 855 l 377 855 q 326 841 338 855 q 314 796 314 827 q 314 773 314 785 q 315 748 314 760 l 440 748 l 440 608 "},"e":{"x_min":0,"x_max":708,"ha":808,"o":"m 708 321 l 207 321 q 254 186 207 236 q 360 140 297 140 q 498 227 451 140 l 699 227 q 566 36 662 104 q 362 -26 477 -26 q 112 72 213 -26 q 0 370 0 182 q 95 684 0 574 q 358 794 191 794 q 619 677 531 794 q 708 321 708 561 m 501 453 q 460 572 501 532 q 354 613 420 613 q 248 571 288 613 q 208 453 208 529 l 501 453 "},"J":{"x_min":0,"x_max":648,"ha":759,"o":"m 648 294 q 572 48 648 125 q 327 -29 496 -29 q 61 82 135 -29 q 0 375 0 173 l 199 375 l 199 310 q 219 195 199 231 q 320 145 248 145 q 417 193 390 145 q 440 307 440 232 l 440 1013 l 648 1013 l 648 294 "},"|":{"x_min":0,"x_max":143,"ha":240,"o":"m 143 462 l 0 462 l 0 984 l 143 984 l 143 462 m 143 -242 l 0 -242 l 0 280 l 143 280 l 143 -242 "},"^":{"x_min":197.21875,"x_max":630.5625,"ha":828,"o":"m 630 836 l 536 836 l 413 987 l 294 836 l 197 836 l 331 1090 l 493 1090 l 630 836 "},"q":{"x_min":0,"x_max":722,"ha":833,"o":"m 722 -299 l 528 -299 l 528 96 q 305 -25 447 -25 q 73 104 158 -25 q 0 372 0 216 q 72 643 0 529 q 305 775 157 775 q 430 742 372 775 q 530 653 489 709 l 530 750 l 722 750 l 722 -299 m 361 601 q 234 527 279 601 q 197 378 197 466 q 233 225 197 291 q 358 144 277 144 q 489 217 441 144 q 530 370 530 282 q 491 523 530 459 q 361 601 444 601 "},"b":{"x_min":0,"x_max":722,"ha":822,"o":"m 416 -25 q 288 7 345 -25 q 191 101 231 40 l 191 0 l 0 0 l 0 1013 l 194 1013 l 194 656 q 288 743 228 712 q 416 775 348 775 q 649 644 565 775 q 722 375 722 533 q 649 106 722 219 q 416 -25 565 -25 m 362 600 q 232 525 280 600 q 192 372 192 459 q 230 222 192 284 q 357 146 275 146 q 487 222 441 146 q 526 375 526 286 q 488 523 526 461 q 362 600 442 600 "},"D":{"x_min":0,"x_max":864,"ha":968,"o":"m 400 1013 q 736 874 608 1013 q 864 524 864 735 q 717 147 864 293 q 340 1 570 1 l 0 1 l 0 1013 l 400 1013 m 398 837 l 206 837 l 206 183 l 372 183 q 584 277 507 183 q 657 505 657 366 q 594 727 657 632 q 398 837 522 837 "},"∙":{"x_min":0,"x_max":207,"ha":304,"o":"m 207 528 l 0 528 l 0 735 l 207 735 l 207 528 "},"z":{"x_min":0,"x_max":664,"ha":753,"o":"m 664 0 l 0 0 l 0 153 l 411 590 l 25 590 l 25 748 l 650 748 l 650 584 l 245 165 l 664 165 l 664 0 "},"w":{"x_min":0,"x_max":1056.953125,"ha":1150,"o":"m 1056 749 l 848 0 l 647 0 l 527 536 l 412 0 l 211 0 l 0 749 l 202 749 l 325 227 l 429 749 l 633 749 l 740 227 l 863 749 l 1056 749 "},"$":{"x_min":-0.328125,"x_max":704,"ha":800,"o":"m 683 691 l 493 691 q 470 779 493 746 q 391 828 442 821 l 391 577 q 633 460 562 532 q 704 257 704 388 q 616 56 704 135 q 391 -22 529 -22 l 391 -156 l 308 -156 l 308 -22 q 76 69 152 -7 q 0 300 0 146 l 183 300 q 215 191 190 230 q 308 127 245 142 l 308 413 q 85 504 158 431 q 12 699 12 577 q 89 901 12 823 q 308 980 166 980 l 308 1069 l 391 1069 l 391 980 q 596 903 522 980 q 683 691 670 827 m 308 598 l 308 830 q 228 795 256 830 q 200 711 200 761 q 225 641 200 667 q 308 598 251 616 m 391 127 q 476 173 449 139 q 504 258 504 206 q 391 387 504 353 l 391 127 "},"™":{"x_min":0,"x_max":952,"ha":1063,"o":"m 404 921 l 254 921 l 254 505 l 148 505 l 148 921 l 0 921 l 0 1013 l 404 1013 l 404 921 m 952 506 l 853 506 l 853 915 l 750 506 l 643 506 l 539 915 l 539 506 l 442 506 l 442 1013 l 595 1013 l 696 626 l 796 1013 l 952 1013 l 952 506 "},"\\":{"x_min":0,"x_max":434.71875,"ha":532,"o":"m 434 -129 l 341 -129 l 0 1040 l 91 1040 l 434 -129 "},"’":{"x_min":0,"x_max":191,"ha":288,"o":"m 191 835 q 137 693 191 751 q 0 626 83 635 l 0 697 q 101 831 101 724 l 0 831 l 0 1013 l 191 1013 l 191 835 "},"~":{"x_min":0,"x_max":851,"ha":948,"o":"m 851 968 q 795 751 851 832 q 599 657 730 657 q 406 744 506 657 q 259 831 305 831 q 162 775 193 831 q 139 657 139 730 l 0 657 q 58 871 0 787 q 251 967 124 967 q 442 879 341 967 q 596 792 544 792 q 691 850 663 792 q 712 968 712 893 l 851 968 "},"-":{"x_min":28,"x_max":414,"ha":525,"o":"m 414 279 l 28 279 l 28 468 l 414 468 l 414 279 "},"Q":{"x_min":0,"x_max":994,"ha":1095,"o":"m 994 47 l 881 -70 l 759 41 q 638 -12 706 4 q 495 -29 570 -29 q 135 123 270 -29 q 0 504 0 276 q 131 881 0 731 q 497 1040 270 1040 q 859 883 719 1040 q 994 506 994 731 q 966 321 994 413 q 884 152 938 229 l 994 47 m 730 298 q 767 395 755 344 q 779 504 779 445 q 713 743 779 644 q 505 857 638 857 q 284 745 366 857 q 210 501 210 644 q 279 265 210 361 q 491 157 357 157 q 615 182 556 157 l 508 287 l 620 405 l 730 298 "},"M":{"x_min":0,"x_max":1020,"ha":1135,"o":"m 1020 0 l 824 0 l 824 818 l 618 0 l 402 0 l 194 818 l 194 0 l 0 0 l 0 1013 l 309 1013 l 509 241 l 708 1013 l 1020 1013 l 1020 0 "},"C":{"x_min":0,"x_max":970.9375,"ha":1043,"o":"m 970 346 q 802 70 933 169 q 490 -29 672 -29 q 130 130 268 -29 q 0 506 0 282 q 134 885 0 737 q 502 1040 275 1040 q 802 939 668 1040 q 965 679 936 838 l 745 679 q 649 809 716 761 q 495 857 582 857 q 283 747 361 857 q 214 508 214 648 q 282 267 214 367 q 493 154 359 154 q 651 204 584 154 q 752 346 718 255 l 970 346 "},"[":{"x_min":0,"x_max":347.71875,"ha":445,"o":"m 347 -299 l 0 -299 l 0 1013 l 347 1013 l 347 866 l 188 866 l 188 -153 l 347 -153 l 347 -299 "},"L":{"x_min":0,"x_max":703.84375,"ha":762,"o":"m 703 1 l 0 1 l 0 1013 l 208 1013 l 208 187 l 703 187 l 703 1 "},"!":{"x_min":0,"x_max":210,"ha":307,"o":"m 210 739 q 187 515 210 686 q 157 282 172 398 l 54 282 q 13 589 27 473 q 0 739 0 704 l 0 1013 l 210 1013 l 210 739 m 207 0 l 2 0 l 2 203 l 207 203 l 207 0 "}," ":{"x_min":0,"x_max":0,"ha":375},"{":{"x_min":0,"x_max":501.171875,"ha":598,"o":"m 501 -285 q 234 -210 305 -285 q 182 -36 182 -155 q 182 46 182 -8 q 182 126 182 102 q 151 244 182 208 q 0 293 110 293 l 0 437 q 153 484 110 437 q 188 602 188 521 q 185 666 188 635 q 176 783 176 771 q 231 945 176 894 q 501 1015 306 1015 l 501 872 q 370 833 407 872 q 340 737 340 801 q 342 677 340 705 q 352 569 352 578 q 325 451 352 495 q 206 365 291 392 q 323 288 292 345 q 347 163 347 245 q 347 78 347 131 q 347 17 347 25 q 373 -95 347 -58 q 501 -141 407 -141 l 501 -285 "},"X":{"x_min":0,"x_max":894.453125,"ha":999,"o":"m 894 0 l 654 0 l 445 351 l 238 0 l 0 0 l 316 516 l 0 1013 l 238 1013 l 445 660 l 652 1013 l 894 1013 l 577 519 l 894 0 "},"P":{"x_min":0,"x_max":771,"ha":838,"o":"m 208 362 l 208 0 l 0 0 l 0 1013 l 450 1013 q 682 920 593 1013 q 771 682 771 827 q 687 453 771 545 q 466 362 604 362 l 208 362 m 422 837 l 209 837 l 209 545 l 411 545 q 525 580 480 545 q 571 684 571 615 q 527 792 571 748 q 422 837 484 837 "},"%":{"x_min":0,"x_max":1111,"ha":1212,"o":"m 861 485 q 1048 405 979 485 q 1111 229 1111 333 q 1048 51 1111 124 q 860 -29 979 -29 q 672 50 740 -29 q 610 228 610 122 q 672 404 610 332 q 861 485 741 485 m 861 120 q 939 151 911 120 q 967 227 967 183 q 942 300 967 271 q 861 334 912 334 q 783 302 811 334 q 756 227 756 270 q 783 151 756 182 q 861 120 810 120 m 904 985 l 316 -28 l 205 -28 l 793 985 l 904 985 m 250 985 q 436 905 366 985 q 499 730 499 833 q 436 552 499 626 q 248 472 366 472 q 62 553 131 472 q 0 729 0 625 q 62 904 0 831 q 250 985 131 985 m 249 836 q 169 802 198 836 q 140 726 140 769 q 167 652 140 683 q 247 621 195 621 q 327 654 298 621 q 357 730 357 687 q 329 804 357 773 q 249 836 301 836 "},"#":{"x_min":0,"x_max":1019.453125,"ha":1117,"o":"m 1019 722 l 969 582 l 776 582 l 718 418 l 919 418 l 868 279 l 668 279 l 566 -5 l 413 -5 l 516 279 l 348 279 l 247 -5 l 94 -5 l 195 279 l 0 279 l 50 418 l 245 418 l 304 582 l 98 582 l 150 722 l 354 722 l 455 1005 l 606 1005 l 506 722 l 673 722 l 776 1005 l 927 1005 l 826 722 l 1019 722 m 627 582 l 454 582 l 394 417 l 568 417 l 627 582 "},"_":{"x_min":61,"x_max":767,"ha":828,"o":"m 767 -333 l 61 -333 l 61 -190 l 767 -190 l 767 -333 "},"+":{"x_min":43,"x_max":785,"ha":828,"o":"m 785 353 l 483 353 l 483 0 l 343 0 l 343 353 l 43 353 l 43 489 l 343 489 l 343 840 l 483 840 l 483 489 l 785 489 l 785 353 "},")":{"x_min":0.109375,"x_max":389,"ha":486,"o":"m 389 357 q 319 14 389 187 q 145 -293 259 -134 l 0 -293 q 139 22 90 -142 q 189 358 189 187 q 139 689 189 525 q 0 1013 90 853 l 145 1013 q 319 703 258 857 q 389 357 389 528 "},"'":{"x_min":0,"x_max":191,"ha":288,"o":"m 191 835 q 136 693 191 752 q 0 627 81 634 l 0 698 q 101 830 101 727 l 0 830 l 0 1013 l 191 1013 l 191 835 "},"}":{"x_min":0,"x_max":500,"ha":597,"o":"m 500 293 q 350 245 391 293 q 317 127 317 208 q 322 41 317 101 q 328 -49 328 -18 q 272 -214 328 -161 q 0 -285 197 -285 l 0 -141 q 124 -97 90 -141 q 150 7 150 -64 q 150 91 150 37 q 150 156 150 145 q 175 280 150 234 q 294 365 207 338 q 176 451 208 389 q 150 576 150 499 q 150 655 150 602 q 150 731 150 708 q 126 831 150 799 q 0 872 90 872 l 0 1015 q 271 944 197 1015 q 326 777 326 891 q 322 706 326 746 q 313 592 313 612 q 347 481 313 517 q 500 437 390 437 l 500 293 "},"‰":{"x_min":0,"x_max":1680,"ha":1774,"o":"m 861 485 q 1048 405 979 485 q 1111 229 1111 333 q 1048 51 1111 124 q 860 -29 979 -29 q 672 50 740 -29 q 610 228 610 122 q 672 404 610 332 q 861 485 741 485 m 861 120 q 939 151 911 120 q 967 227 967 183 q 942 300 967 271 q 861 334 912 334 q 783 302 811 334 q 756 227 756 270 q 783 151 756 182 q 861 120 810 120 m 904 985 l 316 -28 l 205 -28 l 793 985 l 904 985 m 250 985 q 436 905 366 985 q 499 730 499 833 q 436 552 499 626 q 248 472 366 472 q 62 553 131 472 q 0 729 0 625 q 62 904 0 831 q 250 985 131 985 m 249 836 q 169 802 198 836 q 140 726 140 769 q 167 652 140 683 q 247 621 195 621 q 327 654 298 621 q 357 730 357 687 q 329 804 357 773 q 249 836 301 836 m 1430 485 q 1617 405 1548 485 q 1680 229 1680 333 q 1617 51 1680 124 q 1429 -29 1548 -29 q 1241 50 1309 -29 q 1179 228 1179 122 q 1241 404 1179 332 q 1430 485 1310 485 m 1430 120 q 1508 151 1480 120 q 1536 227 1536 183 q 1511 300 1536 271 q 1430 334 1481 334 q 1352 302 1380 334 q 1325 227 1325 270 q 1352 151 1325 182 q 1430 120 1379 120 "},"a":{"x_min":0,"x_max":700,"ha":786,"o":"m 700 0 l 490 0 q 466 93 470 46 q 366 5 428 37 q 234 -26 303 -26 q 65 37 130 -26 q 0 205 0 101 q 119 409 0 355 q 341 452 167 431 q 462 522 462 468 q 422 588 462 565 q 335 611 383 611 q 249 581 284 611 q 215 502 215 552 l 26 502 q 113 706 26 633 q 328 775 194 775 q 538 723 444 775 q 657 554 657 659 l 657 138 q 666 73 657 101 q 700 33 675 46 l 700 0 m 465 297 l 465 366 q 299 322 358 340 q 193 217 193 287 q 223 150 193 174 q 298 127 254 127 q 417 175 370 127 q 465 297 465 224 "},"T":{"x_min":0,"x_max":808,"ha":894,"o":"m 808 831 l 508 831 l 508 0 l 298 0 l 298 831 l 0 831 l 0 1013 l 808 1013 l 808 831 "},"—":{"x_min":0,"x_max":942,"ha":1039,"o":"m 942 297 l 0 297 l 0 450 l 942 450 l 942 297 "},"=":{"x_min":29,"x_max":798,"ha":827,"o":"m 798 501 l 29 501 l 29 634 l 798 634 l 798 501 m 798 204 l 29 204 l 29 339 l 798 339 l 798 204 "},"N":{"x_min":0,"x_max":833.171875,"ha":948,"o":"m 833 0 l 617 0 l 206 696 l 206 0 l 0 0 l 0 1013 l 217 1013 l 629 315 l 629 1013 l 833 1013 l 833 0 "},"2":{"x_min":64,"x_max":764,"ha":828,"o":"m 764 684 q 675 452 764 541 q 484 324 637 415 q 307 168 357 249 l 754 168 l 754 0 l 64 0 q 193 301 64 174 q 433 480 202 310 q 564 673 564 576 q 519 780 564 737 q 416 824 475 824 q 318 780 358 824 q 262 633 270 730 l 80 633 q 184 903 80 807 q 415 988 276 988 q 654 907 552 988 q 764 684 764 819 "},"j":{"x_min":-45.5,"x_max":242,"ha":361,"o":"m 242 830 l 42 830 l 42 1013 l 242 1013 l 242 830 m 242 -118 q 180 -267 242 -221 q 21 -306 128 -306 l -45 -306 l -45 -137 l -24 -137 q 25 -127 8 -137 q 42 -85 42 -117 l 42 749 l 242 749 l 242 -118 "},"Z":{"x_min":0,"x_max":804,"ha":905,"o":"m 804 836 l 251 183 l 793 183 l 793 1 l 0 1 l 0 177 l 551 830 l 11 830 l 11 1013 l 804 1013 l 804 836 "},"u":{"x_min":0,"x_max":668,"ha":782,"o":"m 668 0 l 473 0 l 473 88 q 362 9 424 37 q 233 -19 301 -19 q 61 53 123 -19 q 0 239 0 126 l 0 748 l 199 748 l 199 296 q 225 193 199 233 q 316 146 257 146 q 424 193 380 146 q 469 304 469 240 l 469 749 l 668 749 l 668 0 "},"1":{"x_min":198.890625,"x_max":629,"ha":828,"o":"m 629 0 l 435 0 l 435 674 l 198 674 l 198 810 q 375 837 319 810 q 469 985 451 876 l 629 985 l 629 0 "},"›":{"x_min":36,"x_max":792,"ha":828,"o":"m 792 352 l 36 18 l 36 169 l 594 420 l 36 670 l 36 822 l 792 487 l 792 352 "},"k":{"x_min":0,"x_max":689.0625,"ha":771,"o":"m 689 0 l 450 0 l 271 316 l 196 237 l 196 0 l 0 0 l 0 1013 l 196 1013 l 196 483 l 433 749 l 675 749 l 414 469 l 689 0 "},"<":{"x_min":36,"x_max":792,"ha":828,"o":"m 792 18 l 36 352 l 36 487 l 792 822 l 792 670 l 230 420 l 792 169 l 792 18 "},"t":{"x_min":0,"x_max":413,"ha":512,"o":"m 413 -8 q 350 -8 392 -8 q 287 -8 308 -8 q 137 39 177 -8 q 97 202 97 87 l 97 609 l 0 609 l 0 749 l 97 749 l 97 951 l 297 951 l 297 749 l 413 749 l 413 609 l 297 609 l 297 191 q 315 152 297 162 q 366 143 334 143 q 390 143 379 143 q 413 144 401 143 l 413 -8 "},"W":{"x_min":0,"x_max":1291.671875,"ha":1399,"o":"m 1291 1013 l 1002 1 l 802 1 l 645 777 l 490 1 l 288 1 l 0 1013 l 215 1013 l 388 299 l 534 1013 l 756 1013 l 904 299 l 1076 1013 l 1291 1013 "},"v":{"x_min":0,"x_max":740.28125,"ha":828,"o":"m 740 749 l 473 0 l 266 0 l 0 749 l 222 749 l 373 211 l 529 749 l 740 749 "},">":{"x_min":36,"x_max":792,"ha":828,"o":"m 792 352 l 36 18 l 36 169 l 594 420 l 36 670 l 36 822 l 792 487 l 792 352 "},"s":{"x_min":0,"x_max":681,"ha":775,"o":"m 681 229 q 568 33 681 105 q 340 -29 471 -29 q 107 39 202 -29 q 0 245 0 114 l 201 245 q 252 155 201 189 q 358 128 295 128 q 436 144 401 128 q 482 205 482 166 q 364 285 482 256 q 142 348 181 329 q 25 533 25 408 q 129 716 25 647 q 340 778 220 778 q 554 710 465 778 q 658 522 643 643 l 463 522 q 419 596 458 570 q 327 622 380 622 q 255 606 290 622 q 221 556 221 590 q 339 473 221 506 q 561 404 527 420 q 681 229 681 344 "},"B":{"x_min":0,"x_max":835,"ha":938,"o":"m 674 547 q 791 450 747 518 q 835 304 835 383 q 717 75 835 158 q 461 0 612 0 l 0 0 l 0 1013 l 477 1013 q 697 951 609 1013 q 797 754 797 880 q 765 630 797 686 q 674 547 734 575 m 438 621 q 538 646 495 621 q 590 730 590 676 q 537 814 590 785 q 436 838 494 838 l 199 838 l 199 621 l 438 621 m 445 182 q 560 211 513 182 q 618 311 618 247 q 565 410 618 375 q 444 446 512 446 l 199 446 l 199 182 l 445 182 "},"…":{"x_min":0,"x_max":818,"ha":962,"o":"m 206 0 l 0 0 l 0 207 l 206 207 l 206 0 m 511 0 l 305 0 l 305 207 l 511 207 l 511 0 m 818 0 l 612 0 l 612 207 l 818 207 l 818 0 "},"?":{"x_min":1,"x_max":687,"ha":784,"o":"m 687 734 q 621 563 687 634 q 500 453 560 508 q 436 292 436 385 l 251 292 l 251 391 q 363 558 251 462 q 476 724 476 654 q 432 827 476 788 q 332 866 389 866 q 238 827 275 866 q 195 700 195 781 l 1 700 q 110 955 1 862 q 352 1040 210 1040 q 582 963 489 1040 q 687 734 687 878 m 446 0 l 243 0 l 243 203 l 446 203 l 446 0 "},"H":{"x_min":0,"x_max":838,"ha":953,"o":"m 838 0 l 628 0 l 628 450 l 210 450 l 210 0 l 0 0 l 0 1013 l 210 1013 l 210 635 l 628 635 l 628 1013 l 838 1013 l 838 0 "},"c":{"x_min":0,"x_max":751.390625,"ha":828,"o":"m 751 282 q 625 59 725 143 q 384 -25 526 -25 q 107 85 215 -25 q 0 366 0 195 q 98 651 0 536 q 370 773 204 773 q 616 700 518 773 q 751 486 715 626 l 536 486 q 477 570 516 538 q 380 607 434 607 q 248 533 298 607 q 204 379 204 466 q 243 220 204 285 q 377 140 290 140 q 483 180 438 140 q 543 282 527 220 l 751 282 "},"&":{"x_min":-1,"x_max":910,"ha":1007,"o":"m 910 -1 l 676 -1 l 607 83 q 291 -47 438 -47 q 50 100 135 -47 q -1 273 -1 190 q 51 431 -1 357 q 218 568 104 505 q 152 661 170 629 q 120 769 120 717 q 201 951 120 885 q 382 1013 276 1013 q 555 957 485 1013 q 635 789 635 894 q 584 644 635 710 q 467 539 548 597 l 615 359 q 664 528 654 440 l 844 528 q 725 223 823 359 l 910 -1 m 461 787 q 436 848 461 826 q 381 870 412 870 q 325 849 349 870 q 301 792 301 829 q 324 719 301 757 q 372 660 335 703 q 430 714 405 680 q 461 787 461 753 m 499 214 l 318 441 q 198 286 198 364 q 225 204 198 248 q 347 135 268 135 q 425 153 387 135 q 499 214 462 172 "},"I":{"x_min":42,"x_max":250,"ha":365,"o":"m 250 0 l 42 0 l 42 1013 l 250 1013 l 250 0 "},"•":{"x_min":-28,"x_max":691,"ha":774,"o":"m 691 508 q 588 252 691 358 q 331 147 485 147 q 77 251 182 147 q -28 508 -28 355 q 75 761 -28 655 q 331 868 178 868 q 584 763 478 868 q 691 508 691 658 "},"G":{"x_min":0,"x_max":971,"ha":1057,"o":"m 971 -1 l 829 -1 l 805 118 q 479 -29 671 -29 q 126 133 261 -29 q 0 509 0 286 q 130 884 0 737 q 493 1040 268 1040 q 790 948 659 1040 q 961 697 921 856 l 736 697 q 644 813 710 769 q 500 858 578 858 q 285 746 364 858 q 213 505 213 645 q 285 263 213 362 q 505 154 365 154 q 667 217 598 154 q 761 374 736 280 l 549 374 l 549 548 l 971 548 l 971 -1 "},"(":{"x_min":0,"x_max":388.890625,"ha":486,"o":"m 388 -293 l 243 -293 q 70 14 130 -134 q 0 357 0 189 q 69 703 0 526 q 243 1013 129 856 l 388 1013 q 248 695 297 860 q 200 358 200 530 q 248 24 200 187 q 388 -293 297 -138 "},"`":{"x_min":0,"x_max":190.390625,"ha":288,"o":"m 190 654 l 0 654 l 0 830 q 55 970 0 909 q 190 1040 110 1031 l 190 969 q 111 922 134 952 q 89 836 89 892 l 190 836 l 190 654 "},"U":{"x_min":0,"x_max":813,"ha":927,"o":"m 813 362 q 697 79 813 187 q 405 -29 582 -29 q 114 78 229 -29 q 0 362 0 186 l 0 1013 l 210 1013 l 210 386 q 259 225 210 290 q 408 153 315 153 q 554 225 500 153 q 603 386 603 290 l 603 1013 l 813 1013 l 813 362 "},"F":{"x_min":0,"x_max":707.390625,"ha":778,"o":"m 707 837 l 206 837 l 206 608 l 646 608 l 646 433 l 206 433 l 206 0 l 0 0 l 0 1013 l 707 1013 l 707 837 "},"r":{"x_min":0,"x_max":431.9375,"ha":513,"o":"m 431 564 q 269 536 320 564 q 200 395 200 498 l 200 0 l 0 0 l 0 749 l 183 749 l 183 618 q 285 731 225 694 q 431 768 345 768 l 431 564 "},":":{"x_min":0,"x_max":207,"ha":304,"o":"m 207 528 l 0 528 l 0 735 l 207 735 l 207 528 m 207 0 l 0 0 l 0 207 l 207 207 l 207 0 "},"x":{"x_min":0,"x_max":738.890625,"ha":826,"o":"m 738 0 l 504 0 l 366 237 l 230 0 l 0 0 l 252 382 l 11 749 l 238 749 l 372 522 l 502 749 l 725 749 l 488 384 l 738 0 "},"*":{"x_min":115.21875,"x_max":712.5625,"ha":828,"o":"m 712 740 l 518 689 l 651 525 l 530 439 l 412 613 l 291 440 l 173 524 l 308 689 l 115 742 l 159 881 l 343 817 l 343 1013 l 482 1013 l 482 817 l 663 881 l 712 740 "},"†":{"x_min":0,"x_max":808,"ha":894,"o":"m 508 804 l 808 804 l 808 622 l 508 622 l 508 0 l 298 0 l 298 622 l 0 622 l 0 804 l 298 804 l 298 1011 l 508 1011 l 508 804 "},"V":{"x_min":0,"x_max":895.828125,"ha":997,"o":"m 895 1013 l 550 1 l 347 1 l 0 1013 l 231 1013 l 447 256 l 666 1013 l 895 1013 "},"h":{"x_min":0,"x_max":669,"ha":782,"o":"m 669 0 l 469 0 l 469 390 q 449 526 469 472 q 353 607 420 607 q 248 554 295 607 q 201 441 201 501 l 201 0 l 0 0 l 0 1013 l 201 1013 l 201 665 q 303 743 245 715 q 425 772 362 772 q 609 684 542 772 q 669 484 669 605 l 669 0 "},"0":{"x_min":51,"x_max":779,"ha":828,"o":"m 415 -25 q 142 130 242 -25 q 51 476 51 272 q 141 825 51 683 q 415 984 242 984 q 687 825 585 984 q 779 476 779 682 q 688 132 779 272 q 415 -25 587 -25 m 415 138 q 529 243 485 138 q 568 478 568 339 q 530 714 568 619 q 415 821 488 821 q 303 718 344 821 q 262 478 262 616 q 301 237 262 337 q 415 138 341 138 "},".":{"x_min":0,"x_max":206,"ha":303,"o":"m 206 0 l 0 0 l 0 207 l 206 207 l 206 0 "},"”":{"x_min":0,"x_max":469,"ha":566,"o":"m 191 835 q 137 693 191 751 q 0 626 83 635 l 0 697 q 101 831 101 724 l 0 831 l 0 1013 l 191 1013 l 191 835 m 469 835 q 414 693 469 751 q 277 626 360 635 l 277 697 q 379 831 379 724 l 277 831 l 277 1013 l 469 1013 l 469 835 "},"@":{"x_min":0,"x_max":1276,"ha":1373,"o":"m 1115 -53 q 895 -170 1015 -130 q 647 -211 776 -211 q 158 -34 334 -211 q 0 361 0 123 q 179 811 0 622 q 698 1020 377 1020 q 1138 860 981 1020 q 1276 513 1276 721 q 1173 209 1276 334 q 884 73 1062 73 q 784 89 811 73 q 737 186 750 112 q 647 104 698 133 q 533 75 597 75 q 360 144 420 75 q 308 308 308 205 q 398 568 308 451 q 638 696 497 696 q 731 671 690 696 q 805 604 772 647 l 840 673 l 963 673 q 886 372 915 490 q 857 237 857 255 q 876 199 857 212 q 920 186 895 186 q 1084 282 1019 186 q 1150 511 1150 379 q 1051 779 1150 672 q 715 906 934 906 q 271 734 438 906 q 121 363 121 580 q 250 41 121 170 q 647 -103 394 -103 q 863 -68 751 -103 q 1061 24 975 -33 l 1115 -53 m 769 483 q 770 500 770 489 q 733 567 770 539 q 651 596 695 596 q 508 504 566 596 q 457 322 457 422 q 483 215 457 256 q 561 175 509 175 q 671 221 625 175 q 733 333 718 268 l 769 483 "},"f":{"x_min":0,"x_max":426,"ha":525,"o":"m 426 608 l 303 608 l 303 0 l 107 0 l 107 608 l 0 608 l 0 748 l 107 748 q 145 948 107 893 q 330 1016 194 1016 l 426 1016 l 426 855 l 363 855 q 312 841 325 855 q 300 796 300 827 q 300 773 300 785 q 301 748 300 760 l 426 748 l 426 608 "},";":{"x_min":0,"x_max":208,"ha":305,"o":"m 208 528 l 0 528 l 0 735 l 208 735 l 208 528 m 208 6 q 152 -150 208 -88 q 1 -237 96 -212 l 1 -158 q 88 -100 62 -136 q 114 0 114 -65 l 0 0 l 0 207 l 208 207 l 208 6 "},"“":{"x_min":0,"x_max":468.390625,"ha":567,"o":"m 190 631 l 0 631 l 0 807 q 55 947 0 885 q 190 1017 110 1010 l 190 947 q 89 813 89 921 l 190 813 l 190 631 m 468 631 l 278 631 l 278 807 q 333 947 278 885 q 468 1017 388 1010 l 468 947 q 367 813 367 921 l 468 813 l 468 631 "},"i":{"x_min":14,"x_max":214,"ha":327,"o":"m 214 830 l 14 830 l 14 1013 l 214 1013 l 214 830 m 214 1 l 14 1 l 14 750 l 214 750 l 214 1 "},"6":{"x_min":57,"x_max":771,"ha":828,"o":"m 745 733 l 544 733 q 500 802 533 776 q 425 828 466 828 q 315 769 359 828 q 264 571 264 701 q 451 638 343 638 q 692 538 603 638 q 771 315 771 449 q 683 79 771 176 q 420 -29 586 -29 q 134 123 227 -29 q 57 455 57 250 q 184 865 57 721 q 453 988 293 988 q 658 916 571 988 q 745 733 745 844 m 427 128 q 538 178 498 128 q 578 300 578 229 q 539 422 578 372 q 416 480 494 480 q 305 431 344 480 q 266 314 266 382 q 310 184 266 240 q 427 128 354 128 "},"A":{"x_min":0,"x_max":966.671875,"ha":1069,"o":"m 966 1 l 747 1 l 679 209 l 286 209 l 218 1 l 0 1 l 361 1013 l 600 1013 l 966 1 m 623 377 l 480 810 l 340 377 l 623 377 "},"‘":{"x_min":0,"x_max":190.390625,"ha":289,"o":"m 190 631 l 0 631 l 0 807 q 55 947 0 885 q 190 1017 110 1010 l 190 947 q 89 813 89 921 l 190 813 l 190 631 "},"n":{"x_min":0,"x_max":669,"ha":782,"o":"m 669 0 l 469 0 l 469 452 q 442 553 469 513 q 352 601 412 601 q 245 553 290 601 q 200 441 200 505 l 200 0 l 0 0 l 0 749 l 194 749 l 194 659 q 290 744 230 714 q 416 775 349 775 q 600 700 531 775 q 669 509 669 626 l 669 0 "},"O":{"x_min":0,"x_max":994,"ha":1094,"o":"m 497 -29 q 133 127 272 -29 q 0 505 0 277 q 131 883 0 733 q 497 1040 270 1040 q 860 883 721 1040 q 994 505 994 733 q 862 127 994 277 q 497 -29 723 -29 m 497 154 q 710 266 631 154 q 780 506 780 365 q 710 745 780 647 q 497 857 631 857 q 283 747 361 857 q 213 506 213 647 q 282 266 213 365 q 497 154 361 154 "},"3":{"x_min":61,"x_max":766.171875,"ha":827,"o":"m 766 290 q 652 51 766 143 q 402 -32 548 -32 q 167 48 262 -32 q 61 300 61 140 l 250 300 q 298 173 250 219 q 405 132 342 132 q 513 169 470 132 q 562 281 562 211 q 491 405 562 369 q 343 432 438 432 l 343 568 q 471 592 424 568 q 533 701 533 626 q 492 793 533 758 q 398 829 452 829 q 306 789 344 829 q 268 669 268 749 l 80 669 q 182 909 80 823 q 410 986 274 986 q 632 916 539 986 q 734 719 734 840 q 702 608 734 656 q 614 522 671 561 q 726 427 686 486 q 766 290 766 369 "},"]":{"x_min":0.5,"x_max":349,"ha":446,"o":"m 349 -299 l 0 -299 l 0 -153 l 163 -153 l 163 866 l 0 866 l 0 1013 l 349 1013 l 349 -299 "},"m":{"x_min":0,"x_max":1065,"ha":1173,"o":"m 1065 0 l 866 0 l 866 483 q 836 564 866 532 q 759 596 807 596 q 664 555 701 596 q 628 454 628 514 l 628 0 l 434 0 l 434 481 q 404 563 434 531 q 323 595 375 595 q 231 553 265 595 q 197 453 197 512 l 197 0 l 0 0 l 0 749 l 188 749 l 188 665 q 279 744 226 715 q 393 774 333 774 q 510 743 455 774 q 607 659 564 712 q 695 744 641 714 q 815 775 750 775 q 992 702 920 775 q 1065 523 1065 630 l 1065 0 "},"9":{"x_min":58,"x_max":769,"ha":827,"o":"m 769 493 q 646 90 769 232 q 384 -33 539 -33 q 187 35 271 -33 q 83 224 98 107 l 282 224 q 323 154 287 182 q 404 127 359 127 q 513 182 471 127 q 563 385 563 249 q 475 336 532 356 q 372 316 418 316 q 137 417 224 316 q 58 643 58 508 q 144 878 58 782 q 407 985 239 985 q 694 828 602 985 q 769 493 769 700 m 414 477 q 523 522 486 477 q 560 633 560 567 q 518 765 560 710 q 402 827 472 827 q 297 774 337 827 q 258 650 258 721 q 295 531 258 578 q 414 477 338 477 "},"l":{"x_min":42,"x_max":241,"ha":363,"o":"m 241 0 l 42 0 l 42 1013 l 241 1013 l 241 0 "},"8":{"x_min":57,"x_max":770,"ha":828,"o":"m 625 516 q 733 416 697 477 q 770 284 770 355 q 675 69 770 161 q 415 -29 574 -29 q 145 65 244 -29 q 57 273 57 150 q 93 413 57 349 q 204 516 130 477 q 112 609 142 556 q 83 717 83 662 q 177 905 83 824 q 414 986 272 986 q 650 904 555 986 q 745 715 745 822 q 716 608 745 658 q 625 516 687 558 m 414 590 q 516 624 479 590 q 553 706 553 659 q 516 791 553 755 q 414 828 480 828 q 311 792 348 828 q 275 706 275 757 q 310 624 275 658 q 414 590 345 590 m 414 135 q 527 179 487 135 q 564 279 564 218 q 525 386 564 341 q 411 436 482 436 q 298 387 341 436 q 261 282 261 344 q 300 178 261 222 q 414 135 340 135 "},"p":{"x_min":0,"x_max":722,"ha":823,"o":"m 416 -25 q 289 4 348 -25 q 194 91 230 34 l 194 -299 l 0 -299 l 0 750 l 191 750 l 191 647 q 288 741 230 707 q 416 775 346 775 q 649 645 566 775 q 722 376 722 534 q 649 106 722 219 q 416 -25 564 -25 m 363 603 q 232 529 278 603 q 192 376 192 465 q 231 223 192 287 q 360 147 277 147 q 487 222 441 147 q 526 372 526 286 q 488 523 526 458 q 363 603 444 603 "},"4":{"x_min":53,"x_max":775,"ha":828,"o":"m 775 213 l 660 213 l 660 0 l 470 0 l 470 213 l 53 213 l 53 385 l 417 958 l 660 958 l 660 370 l 775 370 l 775 213 m 474 364 l 474 786 l 204 364 l 474 364 "},"‡":{"x_min":0,"x_max":808,"ha":894,"o":"m 298 622 l 0 622 l 0 804 l 298 804 l 298 1011 l 508 1011 l 508 804 l 808 804 l 808 622 l 508 622 l 508 388 l 808 388 l 808 206 l 508 206 l 508 0 l 298 0 l 298 206 l 0 206 l 0 388 l 298 388 l 298 622 "},"R":{"x_min":0,"x_max":835.78125,"ha":947,"o":"m 835 0 l 607 0 q 587 54 595 21 q 580 145 580 86 q 580 180 580 163 q 580 216 580 197 q 552 346 580 307 q 427 394 517 394 l 208 394 l 208 0 l 0 0 l 0 1013 l 491 1013 q 720 944 630 1013 q 819 735 819 870 q 778 584 819 654 q 664 486 738 514 q 757 416 727 464 q 794 232 794 359 l 794 171 q 800 84 794 117 q 835 32 806 51 l 835 0 m 462 838 l 208 838 l 208 573 l 452 573 q 562 604 517 573 q 612 704 612 640 q 568 801 612 765 q 462 838 525 838 "},"o":{"x_min":0,"x_max":764,"ha":871,"o":"m 380 -25 q 105 87 211 -25 q 0 372 0 200 q 104 660 0 545 q 380 775 209 775 q 658 659 552 775 q 764 372 764 544 q 658 87 764 200 q 380 -25 552 -25 m 379 141 q 515 216 466 141 q 557 373 557 280 q 515 530 557 465 q 379 607 466 607 q 245 530 294 607 q 204 373 204 465 q 245 218 204 283 q 379 141 294 141 "},"5":{"x_min":60,"x_max":768,"ha":828,"o":"m 768 319 q 645 59 768 158 q 383 -29 534 -29 q 159 43 248 -29 q 60 264 60 123 l 253 264 q 296 165 253 201 q 401 129 340 129 q 513 172 467 129 q 565 308 565 220 q 515 437 565 387 q 399 488 465 488 q 330 471 362 488 q 272 423 298 455 l 94 423 l 158 958 l 724 958 l 724 790 l 295 790 l 272 593 q 348 635 307 621 q 432 649 390 649 q 664 551 561 649 q 768 319 768 453 "}}}
